<svg preserveAspectRatio="none" overflow="visible" style="display: block;" width="24" height="24" viewBox="0 0 24 24" fill="none" xmlns="http://www.w3.org/2000/svg">
<g id="icon">
<path id="Vector" d="M15.5803 11.3056H6.59354V7.74927H15.5806C16.1055 7.74927 16.4706 7.84076 16.6538 8.00046C16.837 8.16017 16.9504 8.45676 16.9504 8.88955V10.1665C16.9504 10.6228 16.837 10.9189 16.6538 11.0789C16.4706 11.2386 16.1055 11.307 15.5806 11.307L15.5803 11.3056Z" fill="white"/>
<path id="Vector_2" d="M16.1968 4.39638H2.78182V19.605H6.59331V14.6571H13.6173L16.9502 19.605H21.2182L17.5436 14.6339C18.8982 14.4331 19.5066 14.0179 20.0083 13.3336C20.51 12.6494 20.7617 11.5555 20.7617 10.0955V8.95523C20.7617 8.08919 20.6699 7.40497 20.51 6.88068C20.3501 6.3564 20.0767 5.9001 19.6884 5.49035C19.2782 5.1025 18.8219 4.82941 18.2734 4.6462C17.7254 4.48649 17.0405 4.395 16.197 4.395L16.1968 4.39638Z" fill="white"/>
</g>
</svg>
